<?xml version="1.0" encoding="UTF-8" standalone="no"?>
<!DOCTYPE svg PUBLIC "-//W3C//DTD SVG 1.1//EN" "http://www.w3.org/Graphics/SVG/1.1/DTD/svg11.dtd">
<svg width="100%" height="100%" viewBox="0 0 1024 1024" version="1.1" xmlns="http://www.w3.org/2000/svg" xmlns:xlink="http://www.w3.org/1999/xlink" xml:space="preserve" xmlns:serif="http://www.serif.com/" style="fill-rule:evenodd;clip-rule:evenodd;stroke-linecap:round;stroke-linejoin:round;stroke-miterlimit:1.5;">
    <path d="M829.773,273.906C859.813,225.761 888.844,189.307 904.818,195.959C930.469,206.639 848.541,744.289 742.45,889.619C648.477,1018.35 398.718,963.53 280.413,920.239C173.39,881.076 63.331,690.735 60.109,658.792C46.331,522.196 138.22,620.83 211.46,683.437L191.933,726.397C182.137,747.947 190.365,773.412 210.919,785.157L225.735,793.624C239.663,801.583 256.192,801.479 269.637,794.482C281.297,800.29 296.939,806.912 316.612,814.241C336.836,821.776 362.18,828.263 392.716,833.419C421.932,838.351 458.161,840.938 501.417,840.938C532.263,840.938 565.557,838.525 601.293,833.635C639.485,828.409 675.047,818.099 708.013,802.823C743.328,786.457 772.76,763.971 796.448,735.546C822.251,704.581 836.175,665.038 836.175,616.246C836.175,574.404 826.959,540.731 810.687,514.696C794.308,488.489 772.776,467.67 746.102,452.226L742.678,450.294C746.397,446.962 749.617,442.962 752.151,438.37L825.176,306.079C830.785,295.917 832.146,284.487 829.773,273.906ZM304.924,699.339C307.602,701.039 310.413,702.718 313.363,704.373C330.07,713.745 349.194,722.16 370.79,729.495C391.461,736.515 413.105,742.182 435.726,746.472L436.896,746.682C426.501,745.751 416.86,744.531 407.976,743.031C384.183,739.014 364.372,734.213 348.613,728.342C332.519,722.346 319.714,717.039 310.247,712.305C307.087,710.725 303.992,709.311 300.96,708.06L304.924,699.339ZM374.095,297.764L374.554,298.969C362.365,305.054 351.835,312.317 342.856,320.578C324.173,337.766 314.825,359.062 314.825,384.471C314.825,418.478 328.463,443.368 353.259,460.371C369.838,471.739 391.421,480.787 418.42,486.471C440.558,491.132 465.795,494.299 494.147,495.852C519.54,497.244 545.456,498.983 571.893,501.07C596.793,503.036 621.203,506.472 645.121,511.387C665.711,515.618 684.096,522.249 700.173,531.557C713.715,539.397 724.639,549.975 732.954,563.279C741.38,576.76 744.508,594.581 744.508,616.246C744.508,640.836 739.032,661.257 726.027,676.862C710.909,695.004 692.011,709.207 669.471,719.652C649.88,728.731 629.056,735.423 607.017,739.774C609.831,738.995 612.638,738.172 615.437,737.311C639.094,730.032 659.484,719.857 676.772,707.119C702.767,687.965 715.525,662.531 715.525,631.063C715.525,597.061 701.433,572.537 675.562,556.275C658.989,545.857 637.398,537.737 610.407,533.002C588.533,529.164 563.593,526.623 535.578,525.472C510.389,524.437 484.682,522.883 458.457,520.813C433.355,518.831 408.748,515.532 384.637,510.908C364.269,507.002 346.08,500.592 330.177,491.385C316.703,483.584 305.86,472.916 297.587,459.442C289.034,445.512 285.842,427.062 285.842,404.579C285.842,389.451 289.544,374.606 296.62,359.966C303.892,344.922 315.292,331.837 330.336,320.303C342.447,311.018 356.875,303.074 373.522,296.266L374.095,297.764ZM338.066,593.769C343.731,600.752 347.285,609.346 348.081,618.522C350.419,620.541 354.093,622.117 358.212,624.427C370.433,631.283 384.47,637.332 400.268,642.697C416.991,648.377 434.506,652.94 452.807,656.411C470.097,659.69 485.587,661.429 499.3,661.429C510.207,661.429 524.319,660.582 541.641,658.979C557.548,657.506 573.161,654.411 588.479,649.698C601.512,645.688 612.871,640.34 622.395,633.322C622.906,632.946 623.348,632.547 623.587,632.048C615.889,627.995 606.133,625.319 594.568,623.29C576.226,620.072 555.305,618.027 531.814,617.061C505.498,615.98 478.641,614.358 451.243,612.195C422.723,609.944 394.766,606.188 367.372,600.934C357.236,598.99 347.468,596.601 338.066,593.769ZM586.508,378.715C592.282,380.407 597.902,382.236 603.367,384.203C617.667,389.351 630.15,395.123 640.732,401.701C647.041,405.622 652.111,408.977 654.839,413.07C655.749,414.434 655.766,416.347 656.069,418.469L656.371,420.176C631.091,415.251 605.336,411.759 579.107,409.688L577.846,409.589C580.277,400.773 583.19,390.35 586.508,378.715ZM426.287,376.597C436.145,373.236 447.044,370.724 458.956,368.95C473.212,366.827 487.012,365.746 500.358,365.746C517.973,365.746 535.587,367.423 553.201,370.764C556.906,371.467 560.558,372.214 564.156,373.007C565.367,386.649 566.383,398.74 567.197,408.768C544.126,407.026 521.448,405.544 499.162,404.323C476.008,403.054 455.384,400.577 437.305,396.771C433.055,395.876 429.049,394.892 425.301,393.783C425.599,388.425 425.928,382.674 426.287,376.597ZM613.542,288.497C627.735,291.891 640.617,295.407 652.186,299.06C670.868,304.96 686.609,310.505 699.391,315.749C703.903,317.6 708.26,319.211 712.462,320.588L704.69,334.668C699.999,331.001 694.818,327.388 689.126,323.849C673.602,314.199 655.394,305.507 634.416,297.955C627.404,295.431 620.194,293.077 612.786,290.896L613.158,289.714L613.542,288.497ZM432.975,279.469C443.564,277.743 454.682,276.503 466.326,275.73C459.453,276.384 452.494,277.235 445.452,278.283C441.179,278.92 436.995,279.628 432.901,280.406L432.963,279.618L432.975,279.469ZM554.778,278.093C549.975,277.388 545.172,276.779 540.368,276.271C545.274,276.631 550.058,277.062 554.72,277.566L554.778,278.093ZM255.539,263.797C249.622,188.587 252.889,134.024 278.708,131.547C294.673,130.015 316.44,164.914 338.232,211.686C313.6,221.838 292.415,233.869 274.564,247.556C267.774,252.761 261.436,258.176 255.539,263.797ZM642.969,201.332C669.538,128.591 698.054,68.307 718.732,71.65C737.547,74.691 741.588,149.581 740.14,233.319C738.274,232.615 736.293,231.808 734.184,230.942C719.449,224.897 701.324,218.449 679.789,211.648C668.593,208.113 656.321,204.671 642.969,201.332ZM441.648,185.881C452.27,87.991 467.801,-0.786 489.171,0.005C511.276,0.824 529.634,88.018 543.202,184.558C528.708,183.566 513.369,183.062 497.183,183.062C477.664,183.062 459.153,184.013 441.648,185.881Z" style="fill:rgb(211,62,45);stroke:black;stroke-width:1px;"/>
    <g transform="matrix(1,0,0,1,-281.435,177.347)">
        <text x="441.01px" y="614.583px" style="font-family:'Copperplate';font-size:1058.33px;">S</text>
    </g>
</svg>
